Genre: Drama | Thriller
Language:English
 
http://www.imdb.com/title/tt1226753/

Source:1080p BluRay DTS x264-SECTOR7 Thanks!

Format : MPEG-4
Format profile : Base Media
Codec ID : isom
File size : 2.68 GiB
Duration : 1h 53mn
Overall bit rate : 3 382 Kbps

Video
ID : 1
Format : AVC
Format/Info : Advanced Video Codec
Format profile : High@L5.1
Format settings, CABAC : Yes
Format settings, ReFrames : 3 frames
Codec ID : avc1
Codec ID/Info : Advanced Video Coding
Duration : 1h 53mn
Bit rate mode : Variable
Bit rate : 3 000 Kbps
Maximum bit rate : 15.8 Mbps
Width : 1 280 pixels
Height : 536 pixels
Display aspect ratio : 2.35:1
Frame rate mode : Constant
Frame rate : 23.976 fps
Color space : YUV
Chroma subsampling : 4:2:0
Bit depth : 8 bits
Scan type : Progressive
Bits/(Pixel*Frame) : 0.182
Stream size : 2.34 GiB (87%)
Writing library : x264

Audio
ID : 2
Format : AAC
Format/Info : Advanced Audio Codec
Format version : Version 4
Format profile : LC
Format settings, SBR : No
Codec ID : 40
Duration : 1h 53mn
Bit rate mode : Variable
Bit rate : 427 Kbps
Maximum bit rate : 553 Kbps
Channel(s) : 6 channels
Channel positions : Front: L C R, Side: L R, LFE
Sampling rate : 48.0 KHz
Stream size : 347 MiB (13%)


Plot:
The espionage thriller begins in 1997, as shocking news reaches retired Mossad secret agents Rachel
